<svg width="182" height="182" viewBox="0 0 182 182" fill="none" xmlns="http://www.w3.org/2000/svg">
<g filter="url(#filter0_d_3043_666)">
<circle cx="92.8" cy="86.8" r="80" fill="#4EA487"/>
<path d="M94.1841 25.3239C94.2513 24.7518 94.516 24.2351 94.9783 23.7739C95.4406 23.3127 96.0424 22.943 96.7839 22.6649C97.5042 22.3843 98.3112 22.1891 99.2048 22.0792C100.098 21.9693 101.011 21.9691 101.944 22.0786C104.613 22.3921 106.584 23.6223 107.857 25.7694C109.13 27.9165 109.55 30.8334 109.118 34.5201C108.685 38.2068 107.59 40.9458 105.833 42.7371C104.055 44.526 101.799 45.2599 99.066 44.939C98.2184 44.8395 97.4127 44.659 96.6486 44.3974C95.8846 44.1359 95.2233 43.8219 94.6649 43.4556C94.0853 43.0869 93.6496 42.6813 93.3579 42.2389C93.045 41.7941 92.9171 41.328 92.9743 40.8407C93.0241 40.4169 93.2714 40.0486 93.7163 39.7356C94.1586 39.4439 94.7481 39.3628 95.4847 39.4922C95.5099 40.741 95.8466 41.7149 96.4949 42.4139C97.1194 43.1317 98.0144 43.559 99.1797 43.6958C101.002 43.9097 102.48 43.2133 103.614 41.6066C104.745 40.021 105.51 37.5332 105.908 34.1432C106.306 30.7532 106.15 28.1465 105.44 26.3234C104.707 24.5189 103.44 23.5109 101.639 23.2994C100.876 23.2099 100.158 23.2867 99.4855 23.5299C98.7914 23.7705 98.1845 24.1826 97.6649 24.766C97.1217 25.3681 96.7093 26.1359 96.4279 27.0694C96.0203 27.0645 95.6414 26.9986 95.2912 26.8715C94.9409 26.7445 94.663 26.5507 94.4573 26.2903C94.2279 26.0486 94.1368 25.7264 94.1841 25.3239ZM73.9673 24.059C74.902 23.8401 75.694 23.9942 76.3433 24.5213C76.9719 25.0533 77.4565 26.0463 77.797 27.5003L78.3809 29.9928L77.6994 29.8895C77.7446 28.5862 77.9957 27.3661 78.4525 26.2293C78.9141 25.1133 79.557 24.163 80.3811 23.3783C81.2101 22.6145 82.1957 22.0988 83.3382 21.8312C84.5429 21.549 85.5738 21.6471 86.4308 22.1256C87.2927 22.6249 87.8526 23.4249 88.1105 24.5258C88.3197 25.419 88.2736 26.2514 87.9724 27.0231C87.6503 27.7997 87.1482 28.5089 86.4659 29.1507C85.7836 29.7926 84.9964 30.3604 84.1042 30.8543C83.2853 31.2871 82.439 31.6496 81.5653 31.9419C80.6916 32.2342 79.8888 32.4551 79.157 32.6046L79.3394 33.3836C79.7578 35.1699 80.3521 36.4439 81.1221 37.2057C81.897 37.9883 82.9595 38.2215 84.3096 37.9052C84.7874 37.7933 85.2481 37.6087 85.6917 37.3514C86.1147 37.099 86.4381 36.7493 86.6621 36.3025C86.8702 35.8812 86.8988 35.3487 86.748 34.7048C86.6555 34.3101 86.4623 33.9062 86.1684 33.493C85.8585 33.1055 85.4428 32.8742 84.9213 32.7992C85.0706 32.5013 85.2785 32.2663 85.5449 32.0943C85.8163 31.9432 86.1077 31.8311 86.4193 31.7581C87.1878 31.5781 87.8663 31.715 88.4546 32.1687C89.027 32.6482 89.3959 33.241 89.5614 33.9472C89.8484 35.1727 89.5169 36.2363 88.5669 37.1381C87.6168 38.0399 86.2071 38.7097 84.3377 39.1476C82.1567 39.6584 80.4284 39.4826 79.1528 38.6201C77.8612 37.7833 76.9454 36.2121 76.4054 33.9065L74.9896 27.8621C74.7317 26.7612 74.2393 26.2959 73.5123 26.4662C73.3669 26.5003 73.2105 26.5807 73.043 26.7076C72.8596 26.8601 72.7299 27.0548 72.6539 27.2917C72.4855 27.134 72.3587 26.9665 72.2733 26.7893C72.1721 26.6377 72.102 26.4788 72.0631 26.3127C71.9512 25.8349 72.0744 25.3788 72.4328 24.9443C72.7911 24.5098 73.3026 24.2147 73.9673 24.059ZM82.4509 24.0767C81.8949 24.2288 81.3547 24.5416 80.8302 25.015C80.3105 25.5092 79.8696 26.1055 79.5073 26.8039C79.145 27.5022 78.8957 28.2618 78.7592 29.0825C78.6228 29.9033 78.6415 30.7315 78.8154 31.5672C79.298 31.4761 79.8148 31.3441 80.3659 31.1712C80.9011 31.0239 81.4266 30.8351 81.9423 30.6047C82.4372 30.3792 82.8705 30.1244 83.2422 29.8401C84.0208 29.3291 84.5833 28.7372 84.9297 28.0645C85.276 27.3917 85.3568 26.6607 85.1719 25.8714C85.0308 25.2691 84.7357 24.7576 84.2866 24.3369C83.8424 23.937 83.2305 23.8503 82.4509 24.0767ZM66.7602 46.1551C65.8116 46.7703 64.8995 47.0695 64.024 47.0526C63.1601 47.0536 62.3491 46.8422 61.5911 46.4184C60.8331 45.9947 60.1361 45.4297 59.5 44.7234C58.8576 44.0467 58.2926 43.3325 57.805 42.5808C56.2029 40.1108 55.4708 37.8649 55.6087 35.8429C55.7287 33.8326 56.6746 32.2527 58.4465 31.1034C59.3414 30.5229 60.2182 30.2085 61.0768 30.1602C61.9175 30.1234 62.6752 30.3312 63.35 30.7834L61.5042 27.9377C61.2604 27.5618 60.9612 27.1202 60.6066 26.6128C60.2341 26.1169 59.8527 25.6269 59.4624 25.1427C59.0425 24.6522 58.6659 24.248 58.3326 23.9302C58.3704 23.7532 58.4739 23.5208 58.6432 23.2329C58.783 22.9388 59.0229 22.6815 59.363 22.4609C59.7746 22.1939 60.196 22.0986 60.627 22.1751C61.0463 22.2336 61.3837 22.4597 61.6391 22.8535L71.5905 38.2542C71.9156 38.7553 72.1956 39.0695 72.4307 39.1967C72.6774 39.3418 72.9439 39.3215 73.2303 39.1358C73.3198 39.0777 73.4245 38.9844 73.5445 38.8557C73.6645 38.727 73.7111 38.5442 73.6845 38.3071C73.8964 38.3986 74.0814 38.5074 74.2396 38.6337C74.3978 38.7599 74.5175 38.8857 74.5988 39.011C74.8542 39.4047 74.9021 39.8314 74.7424 40.2909C74.5828 40.7504 74.2524 41.1427 73.7513 41.4678C72.928 42.0018 72.1226 42.0538 71.3351 41.6238C70.5413 41.2233 69.7729 40.4503 69.0299 39.3048L67.5671 37.0497L68.0358 36.4786C68.5321 37.479 68.8899 38.4421 69.109 39.3679C69.3218 40.3233 69.3876 41.2087 69.3063 42.0243C69.2188 42.8694 68.9694 43.6414 68.5582 44.3404C68.1471 45.0394 67.5477 45.6442 66.7602 46.1551ZM66.491 44.27C67.1174 43.8636 67.5593 43.31 67.8167 42.6091C68.0561 41.9198 68.1311 41.1338 68.0416 40.251C67.9459 39.3977 67.7146 38.4924 67.348 37.5351C66.975 36.6073 66.4925 35.687 65.9005 34.7742C65.4825 34.1299 65.0431 33.5504 64.5821 33.0357C64.1327 32.5389 63.6613 32.1454 63.1679 31.8551C62.6682 31.5944 62.146 31.4754 61.6014 31.4981C61.0567 31.5209 60.489 31.7238 59.8984 32.1069C58.6813 32.8963 58.1168 34.0253 58.2049 35.4939C58.3045 36.9804 59.0393 38.7796 60.4092 40.8916C60.8271 41.5359 61.2692 42.1391 61.7355 42.7012C62.1955 43.2928 62.6807 43.7664 63.191 44.1219C63.6951 44.507 64.219 44.7266 64.7627 44.7808C65.3064 44.835 65.8825 44.6647 66.491 44.27ZM54.4469 57.4988C53.763 58.3992 53.0063 58.9898 52.1768 59.2706C51.3644 59.5643 50.5297 59.6403 49.673 59.4985C48.8162 59.3568 47.969 59.0614 47.1311 58.6126C46.2974 58.1936 45.5238 57.7132 44.8103 57.1712C42.4659 55.3905 41.0159 53.5256 40.4603 51.5766C39.8919 49.6445 40.2464 47.8376 41.5238 46.1558C42.169 45.3063 42.8873 44.7134 43.6787 44.3769C44.4572 44.0573 45.2406 43.996 46.0287 44.1928L43.3276 42.1411C42.9708 41.8701 42.5397 41.556 42.0341 41.1988C41.5156 40.8585 40.9907 40.5268 40.4593 40.2035C39.8981 39.8844 39.4068 39.6318 38.9855 39.4457C38.961 39.2664 38.9796 39.0126 39.0414 38.6845C39.0732 38.3604 39.2117 38.037 39.4569 37.7142C39.7537 37.3235 40.1178 37.091 40.5492 37.0168C40.9636 36.9298 41.3577 37.0282 41.7314 37.3121L56.3135 48.4284C56.7891 48.7897 57.1591 48.9904 57.4234 49.0304C57.7047 49.0833 57.9486 48.9739 58.155 48.7021C58.2195 48.6171 58.2864 48.4938 58.3557 48.3321C58.4249 48.1704 58.4069 47.9825 58.3015 47.7685C58.5318 47.7827 58.7428 47.8224 58.9344 47.8876C59.126 47.9528 59.2813 48.0305 59.4002 48.1209C59.7739 48.4047 59.9636 48.7899 59.9691 49.2763C59.9747 49.7628 59.7968 50.2438 59.4355 50.7195C58.842 51.501 58.1018 51.8229 57.2152 51.6852C56.3326 51.5774 55.3477 51.1106 54.2605 50.2847L52.12 48.6588L52.3674 47.9627C53.1734 48.7357 53.8363 49.5205 54.3563 50.3173C54.8803 51.144 55.2423 51.9548 55.4423 52.7496C55.6463 53.5743 55.6734 54.3852 55.5234 55.1821C55.3735 55.9791 55.0146 56.7513 54.4469 57.4988ZM53.5547 55.8165C54.0064 55.2219 54.2345 54.5513 54.239 53.8047C54.2307 53.075 54.0348 52.3101 53.6514 51.5098C53.2721 50.7395 52.7477 49.9662 52.0783 49.1898C51.413 48.4433 50.6471 47.741 49.7807 47.0829C49.1692 46.6184 48.5593 46.2221 47.9512 45.8942C47.36 45.5791 46.7831 45.3686 46.2206 45.2628C45.6621 45.1869 45.1305 45.2519 44.6258 45.4579C44.121 45.6639 43.6557 46.0472 43.2299 46.6078C42.3524 47.763 42.204 49.0165 42.7846 50.3683C43.3821 51.7331 44.6832 53.1768 46.6878 54.6994C47.2994 55.164 47.9198 55.5816 48.549 55.9524C49.1823 56.3531 49.7993 56.6342 50.3999 56.7957C51.0046 56.9871 51.5719 57.0162 52.1018 56.8829C52.6317 56.7496 53.116 56.3941 53.5547 55.8165ZM29.3117 70.8176C29.6002 69.902 30.1367 69.2994 30.9214 69.0098C31.6996 68.7405 32.8008 68.8303 34.2251 69.2791L36.6668 70.0484L36.2303 70.5819C35.1324 69.8781 34.2111 69.0398 33.4663 68.067C32.7419 67.1006 32.2525 66.0629 31.998 64.9538C31.7639 63.8512 31.8231 62.7403 32.1757 61.6212C32.5475 60.4411 33.1578 59.6045 34.0066 59.1114C34.8757 58.6247 35.8494 58.5513 36.9278 58.8911C37.8027 59.1668 38.4952 59.631 39.0053 60.2838C39.509 60.9569 39.8628 61.7506 40.0668 62.6648C40.2709 63.5791 40.3577 64.5459 40.3273 65.5652C40.2818 66.4903 40.162 67.4031 39.9677 68.3037C39.7734 69.2043 39.5539 70.0074 39.3092 70.7132L40.0722 70.9536C41.8221 71.5049 43.221 71.6437 44.269 71.37C45.3374 71.1027 46.0799 70.3078 46.4967 68.9852C46.6441 68.5173 46.7204 68.0268 46.7254 67.514C46.724 67.0214 46.5882 66.5649 46.3182 66.1443C46.062 65.7504 45.6186 65.4541 44.9878 65.2554C44.6012 65.1336 44.1552 65.0937 43.6499 65.1358C43.1585 65.2047 42.7475 65.4442 42.4169 65.8545C42.2369 65.5741 42.1408 65.2754 42.1289 64.9585C42.1372 64.648 42.1895 64.3402 42.2856 64.035C42.5229 63.2821 42.9867 62.7684 43.6771 62.4939C44.3814 62.2461 45.0795 62.2312 45.7713 62.4492C46.9718 62.8274 47.7175 63.6551 48.0085 64.9322C48.2995 66.2094 48.1565 67.7636 47.5795 69.5948C46.9064 71.7313 45.8735 73.1281 44.481 73.7854C43.1024 74.4694 41.2838 74.4556 39.0253 73.7439L33.1042 71.8783C32.0258 71.5386 31.3744 71.7247 31.15 72.4369C31.1051 72.5793 31.0946 72.7549 31.1182 72.9637C31.1559 73.1992 31.2572 73.4101 31.4222 73.5963C31.2006 73.6607 30.9918 73.6844 30.7959 73.6674C30.6139 73.6771 30.4415 73.6563 30.2787 73.6051C29.8107 73.4576 29.4813 73.1189 29.2903 72.5891C29.0994 72.0592 29.1065 71.4687 29.3117 70.8176ZM33.6545 63.5298C33.5017 64.0856 33.4952 64.7098 33.6348 65.4025C33.7948 66.1015 34.0827 66.785 34.4986 67.4528C34.9145 68.1207 35.4406 68.7226 36.0769 69.2586C36.7132 69.7946 37.4351 70.201 38.2426 70.4778C38.4104 70.0162 38.5605 69.5043 38.6929 68.9421C38.8393 68.4067 38.9449 67.8584 39.0098 67.2973C39.0684 66.7566 39.0702 66.2539 39.0153 65.7893C38.9729 64.8589 38.7508 64.0731 38.3489 63.432C37.9469 62.7909 37.3594 62.3486 36.5862 62.105C35.9961 61.9191 35.4056 61.9119 34.8147 62.0836C34.2442 62.2617 33.8574 62.7438 33.6545 63.5298ZM27.2622 84.7988C27.2195 83.6903 27.4081 82.765 27.8278 82.023C28.2697 81.3015 28.8666 80.7234 29.6184 80.2888C30.3703 79.8542 31.2012 79.534 32.1113 79.3282C33.0427 79.1215 33.9667 79.0005 34.8834 78.9652C37.8039 78.8528 40.107 79.3405 41.7928 80.4284C43.4794 81.5377 44.3646 83.1795 44.4483 85.3539C44.4902 86.4411 44.3119 87.3553 43.9135 88.0965C43.5158 88.8591 42.9391 89.4043 42.1831 89.7323L45.8924 89.5895C46.7024 89.5583 47.5113 89.4951 48.3189 89.4C49.1478 89.304 49.8997 89.1469 50.5744 88.9288C50.7073 89.0518 50.8536 89.249 51.0135 89.5204C51.1955 89.8122 51.2944 90.1607 51.31 90.5657C51.3288 91.056 51.2059 91.4664 50.9411 91.7968C50.6762 92.1273 50.288 92.3023 49.7764 92.322L31.6126 92.9895C31.0371 93.0117 30.614 93.1133 30.3434 93.2946C30.095 93.4963 29.977 93.757 29.9893 94.0768C29.9934 94.1833 30.02 94.3211 30.0692 94.49C30.1406 94.6794 30.2738 94.813 30.469 94.8909C30.3042 95.0467 30.1267 95.1496 29.9364 95.1996C29.747 95.271 29.5777 95.3095 29.4285 95.3153C28.9382 95.3341 28.536 95.1468 28.222 94.7533C27.9293 94.3589 27.771 93.8526 27.7472 93.2344C27.7103 92.2751 28.0665 91.5462 28.8158 91.0477C29.5874 90.5696 30.6659 90.3039 32.0516 90.2506L34.6416 90.1508L34.8926 90.8457C33.7791 90.7605 32.7682 90.5646 31.8597 90.258C30.9521 89.9727 30.1575 89.5763 29.4762 89.0688C28.7956 88.5826 28.2602 87.9841 27.8699 87.2733C27.5009 86.5616 27.2984 85.7368 27.2622 84.7988ZM29.0197 85.5317C29.0485 86.2779 29.2978 86.9301 29.7676 87.4884C30.2596 88.0672 30.9073 88.5333 31.7108 88.8867C32.5152 89.2613 33.4327 89.5249 34.4633 89.6773C35.4947 89.8511 36.5754 89.9162 37.7052 89.8727C38.3447 89.8481 38.9716 89.7706 39.5857 89.6402C40.2211 89.509 40.7897 89.3056 41.2914 89.0301C41.7932 88.7546 42.1839 88.3659 42.4634 87.8641C42.743 87.3623 42.868 86.7277 42.8385 85.9603C42.7859 84.596 42.0955 83.5765 40.7672 82.9017C39.4611 82.2475 37.5716 81.968 35.0988 82.0632C34.2887 82.0944 33.5118 82.1564 32.7682 82.2491C32.0254 82.3631 31.36 82.5488 30.7722 82.8063C30.2056 83.0629 29.76 83.411 29.4353 83.8505C29.132 84.2892 28.9935 84.8496 29.0197 85.5317ZM31.1945 109.08C30.3179 106.903 30.3252 104.922 31.2164 103.137C32.1353 101.365 33.8415 99.976 36.3349 98.972C38.8482 97.9599 41.0503 97.7746 42.9414 98.4159C44.8405 99.0771 46.2284 100.496 47.1049 102.673C47.9815 104.85 47.9603 106.825 47.0414 108.597C46.1225 110.37 44.4064 111.763 41.8932 112.775C39.3997 113.779 37.2075 113.96 35.3163 113.319C33.445 112.67 32.071 111.257 31.1945 109.08ZM32.3225 108.626C32.8484 109.932 33.8306 110.686 35.2691 110.889C36.7156 111.111 38.5371 110.78 40.7337 109.896C42.9501 109.003 44.5026 107.975 45.3913 106.813C46.3077 105.662 46.5029 104.433 45.977 103.127C45.443 101.801 44.443 101.031 42.9767 100.817C41.5382 100.614 39.7108 100.959 37.4944 101.851C35.2978 102.736 33.7512 103.75 32.8546 104.893C31.9659 106.055 31.7886 107.3 32.3225 108.626ZM42.1153 128.438C40.5679 126.645 39.9041 124.766 40.1239 122.801C40.3577 120.852 41.5242 118.971 43.6235 117.159C45.6421 115.416 47.6718 114.552 49.7128 114.565C51.7838 114.581 53.6279 115.526 55.245 117.399C56.4299 118.772 57.0384 120.064 57.0705 121.276C57.1025 122.489 56.6745 123.478 55.7863 124.245C55.205 124.747 54.5972 124.99 53.9632 124.974C53.3291 124.957 52.789 124.691 52.3429 124.174C52.1477 123.948 51.986 123.679 51.8576 123.367C51.7432 123.071 51.719 122.782 51.7851 122.5C52.1374 122.646 52.5065 122.666 52.8926 122.558C53.2786 122.45 53.6654 122.229 54.053 121.895C54.5213 121.49 54.8101 121.058 54.9196 120.597C55.0591 120.138 55.0541 119.692 54.9045 119.257C54.7548 118.823 54.4988 118.395 54.1363 117.976C53.2999 117.007 52.1577 116.598 50.7097 116.749C49.2918 116.902 47.7189 117.724 45.991 119.216C44.6991 120.331 43.8039 121.4 43.3054 122.422C42.837 123.446 42.683 124.411 42.8436 125.315C43.0342 126.221 43.4501 127.046 44.0914 127.789C44.5933 128.37 45.1432 128.811 45.7413 129.112C46.3533 129.429 46.9914 129.597 47.6555 129.616C48.3197 129.634 48.974 129.478 49.6184 129.147C49.6932 129.364 49.6616 129.589 49.5236 129.821C49.3856 130.053 49.0579 130.293 48.5404 130.543C47.4476 131.007 46.3405 131.047 45.2192 130.662C44.0979 130.277 43.0632 129.536 42.1153 128.438ZM64.5234 123.831C64.1012 123.541 63.8344 123.138 63.7229 122.622C63.629 122.117 63.7269 121.654 64.0166 121.232C64.3183 120.792 64.7213 120.525 65.2255 120.432C65.7473 120.35 66.2193 120.454 66.6415 120.743C67.0637 121.033 67.3217 121.43 67.4156 121.934C67.5095 122.438 67.4056 122.91 67.1038 123.35C66.8142 123.772 66.4172 124.03 65.913 124.124C65.4088 124.218 64.9456 124.12 64.5234 123.831ZM57.1629 137.331C56.813 137.841 56.4893 138.369 56.1921 138.915C55.8949 139.462 55.6718 139.994 55.5229 140.513C55.3449 140.546 55.0906 140.54 54.7598 140.494C54.4346 140.478 54.1048 140.355 53.7706 140.126C53.3836 139.86 53.1366 139.523 53.0296 139.113C52.9523 138.698 53.0525 138.288 53.33 137.883L59.6941 128.55C60.0562 128.023 60.3859 127.486 60.6831 126.939C60.9979 126.405 61.221 125.873 61.3523 125.342C61.5479 125.321 61.8022 125.327 62.1154 125.361C62.4286 125.394 62.7523 125.526 63.0865 125.755C63.4735 126.021 63.7117 126.352 63.8011 126.75C63.9201 127.142 63.8348 127.549 63.5452 127.972L57.1629 137.331ZM75.294 149.898C74.3856 149.587 73.796 149.036 73.5252 148.245C73.2747 147.461 73.3908 146.362 73.8735 144.949L74.701 142.526L75.2239 142.975C74.494 144.056 73.6339 144.957 72.6436 145.678C71.6602 146.379 70.611 146.844 69.4962 147.072C68.3883 147.279 67.2791 147.194 66.1688 146.814C64.9979 146.414 64.1761 145.784 63.7035 144.924C63.2378 144.043 63.1877 143.068 63.5531 141.998C63.8497 141.13 64.3303 140.449 64.9951 139.955C65.6801 139.467 66.4821 139.133 67.4009 138.95C68.3198 138.768 69.2884 138.705 70.3067 138.759C71.2304 138.827 72.1401 138.969 73.0358 139.185C73.9315 139.4 74.7291 139.639 75.4288 139.9L75.6874 139.143C76.2805 137.407 76.4527 136.012 76.2042 134.958C75.9625 133.883 75.1856 133.122 73.8734 132.674C73.409 132.515 72.9206 132.427 72.408 132.41C71.9156 132.399 71.4559 132.524 71.0289 132.784C70.6291 133.031 70.3223 133.467 70.1085 134.093C69.9775 134.476 69.9269 134.921 69.9569 135.428C70.014 135.92 70.2437 136.337 70.6459 136.677C70.3613 136.851 70.0604 136.94 69.7433 136.944C69.4331 136.928 69.1266 136.869 68.8237 136.765C68.0768 136.51 67.5743 136.034 67.3164 135.337C67.0855 134.627 67.0873 133.929 67.3218 133.242C67.7287 132.051 68.574 131.326 69.8577 131.065C71.1414 130.805 72.6918 130.985 74.5087 131.606C76.6284 132.33 78.0002 133.396 78.6239 134.804C79.2747 136.198 79.2174 138.016 78.4519 140.257L76.4452 146.132C76.0797 147.202 76.2503 147.857 76.9568 148.099C77.0982 148.147 77.2734 148.162 77.4827 148.143C77.7191 148.111 77.9323 148.015 78.1224 147.854C78.1815 148.077 78.2001 148.287 78.1785 148.482C78.1839 148.664 78.159 148.836 78.1038 148.998C77.9452 149.462 77.5987 149.783 77.0645 149.961C76.5302 150.14 75.94 150.118 75.294 149.898ZM68.1122 145.382C68.6642 145.548 69.2881 145.569 69.9839 145.446C70.6866 145.303 71.3767 145.031 72.0543 144.632C72.7319 144.232 73.3462 143.72 73.8973 143.097C74.4484 142.474 74.8719 141.762 75.168 140.961C74.7105 140.782 74.2024 140.62 73.6435 140.474C73.1117 140.315 72.5662 140.196 72.0068 140.118C71.4676 140.047 70.9651 140.033 70.4993 140.076C69.5681 140.097 68.7773 140.3 68.1268 140.686C67.4763 141.073 67.02 141.65 66.7579 142.417C66.558 143.002 66.5367 143.592 66.6942 144.187C66.8586 144.762 67.3313 145.16 68.1122 145.382ZM99.03 152.595C98.5011 152.664 98.0335 152.542 97.6271 152.229C97.2208 151.916 96.9846 151.505 96.9187 150.998C96.85 150.469 96.9721 150.001 97.2851 149.595C97.598 149.188 98.0189 148.951 98.5478 148.882C99.0556 148.816 99.5126 148.94 99.919 149.253C100.325 149.566 100.563 149.987 100.632 150.516C100.697 151.023 100.574 151.48 100.261 151.887C99.948 152.293 99.5377 152.529 99.03 152.595ZM127.323 142.653C126.909 142.917 126.493 143.018 126.074 142.957C125.644 142.877 125.296 142.631 125.032 142.217L114.015 125.029L116.572 123.623L126.074 138.438C126.407 138.96 126.767 139.464 127.154 139.951C127.541 140.438 127.944 140.851 128.363 141.191C128.324 141.367 128.219 141.599 128.048 141.886C127.906 142.179 127.664 142.435 127.323 142.653ZM110.256 129.785C110.03 129.828 109.785 129.782 109.521 129.646C109.264 129.481 109.023 129.281 108.796 129.046C108.588 128.799 108.463 128.563 108.42 128.337C108.365 128.094 108.428 127.915 108.608 127.8L121.309 119.686C121.489 119.571 121.669 119.595 121.85 119.759C122.036 119.893 122.189 120.112 122.307 120.416C122.443 120.708 122.523 121.012 122.547 121.326C122.577 121.61 122.525 121.846 122.391 122.033C121.712 122.239 120.971 122.484 120.166 122.771C119.368 123.027 118.569 123.322 117.77 123.656C116.97 123.989 116.229 124.374 115.546 124.811C114.881 125.236 114.238 125.735 113.617 126.309C112.996 126.882 112.402 127.477 111.833 128.094C111.271 128.68 110.745 129.244 110.256 129.785ZM131.733 115.416C132.029 115.052 132.393 114.84 132.827 114.78C133.261 114.719 133.693 114.864 134.123 115.214L143.06 122.433C143.523 122.81 143.895 123.029 144.174 123.091C144.451 123.123 144.683 123.023 144.871 122.791C144.952 122.692 145.029 122.563 145.104 122.403C145.162 122.231 145.15 122.042 145.068 121.838C145.481 121.871 145.828 122.002 146.11 122.231C146.474 122.527 146.658 122.91 146.661 123.38C146.677 123.833 146.484 124.308 146.08 124.805C145.542 125.467 144.91 125.805 144.184 125.82C143.454 125.804 142.642 125.433 141.748 124.707L140.183 123.436L139.989 122.66C140.902 123.566 141.561 124.514 141.967 125.503C142.356 126.479 142.487 127.451 142.36 128.42C142.23 129.359 141.821 130.25 141.135 131.095C140.059 132.419 138.87 133.088 137.567 133.102C136.261 133.085 134.664 132.31 132.777 130.777L127.909 126.822C127.478 126.472 126.994 126.12 126.457 125.767C125.904 125.399 125.374 125.12 124.869 124.93C124.858 124.673 124.883 124.405 124.945 124.126C125.004 123.817 125.155 123.513 125.397 123.215C125.706 122.834 126.063 122.615 126.466 122.558C126.883 122.485 127.291 122.609 127.688 122.932L134.295 128.299C135.305 129.12 136.193 129.718 136.96 130.094C137.71 130.456 138.369 130.592 138.936 130.503C139.5 130.384 140.017 130.035 140.488 129.455C140.811 129.058 141.019 128.581 141.114 128.026C141.208 127.47 141.151 126.847 140.943 126.155C140.718 125.451 140.307 124.705 139.71 123.917C139.126 123.113 138.305 122.281 137.245 121.42C136.285 120.64 135.483 120.002 134.84 119.508C134.211 118.996 133.691 118.588 133.28 118.281C132.853 117.962 132.48 117.727 132.161 117.578C131.839 117.399 131.512 117.244 131.18 117.111C131.162 116.931 131.182 116.686 131.241 116.377C131.3 116.067 131.464 115.747 131.733 115.416ZM152.38 114.763C152.229 115.162 151.953 115.468 151.552 115.681C151.132 115.886 150.673 115.894 150.174 115.705L139.495 111.648C138.936 111.436 138.521 111.358 138.248 111.414C137.964 111.443 137.764 111.607 137.651 111.906C137.613 112.006 137.594 112.147 137.593 112.329C137.572 112.504 137.633 112.675 137.774 112.843C137.364 112.961 136.99 112.956 136.651 112.827C136.192 112.653 135.884 112.353 135.726 111.928C135.575 111.483 135.617 110.951 135.852 110.333C136.155 109.535 136.675 109.037 137.413 108.838C138.138 108.611 139.075 108.727 140.224 109.187L141.959 109.846L141.763 110.182C140.151 109.319 139.057 108.355 138.479 107.292C137.89 106.2 137.815 105.077 138.254 103.92C138.648 102.883 139.249 102.141 140.058 101.695C140.846 101.242 141.749 101.208 142.766 101.594C143.444 101.852 143.93 102.254 144.225 102.799C144.52 103.345 144.583 103.871 144.413 104.377C144.221 104.943 143.936 105.302 143.558 105.456C143.298 105.06 143.039 104.779 142.783 104.613C142.507 104.44 142.199 104.289 141.86 104.16C141.242 103.925 140.74 103.894 140.355 104.067C139.949 104.233 139.644 104.585 139.44 105.123C139.243 105.642 139.297 106.221 139.601 106.862C139.886 107.495 140.493 108.148 141.424 108.821C142.335 109.487 143.638 110.141 145.334 110.785C146.47 111.217 147.418 111.577 148.175 111.865C148.921 112.125 149.547 112.34 150.053 112.509C150.539 112.671 150.963 112.787 151.325 112.856C151.667 112.917 152.01 112.945 152.354 112.939C152.429 113.104 152.482 113.352 152.516 113.685C152.557 113.997 152.512 114.356 152.38 114.763ZM157.825 96.9606C157.792 97.5998 157.61 98.0284 157.279 98.2465C156.927 98.4422 156.506 98.5276 156.016 98.5027L135.594 97.4631C135.082 97.4584 134.695 97.2892 134.435 96.9555C134.174 96.6218 134.056 96.2099 134.081 95.7199C134.103 95.2938 134.206 94.9466 134.39 94.6783C134.554 94.4089 134.702 94.2136 134.837 94.0922C135.384 94.2483 135.891 94.3595 136.358 94.426C136.824 94.4925 137.269 94.5578 137.693 94.6222C138.097 94.6641 138.523 94.6964 138.97 94.7192C139.396 94.7409 139.853 94.7855 140.341 94.8531L146.316 95.1892L146.05 95.368C145 95.0155 144.106 94.5321 143.369 93.9178C142.611 93.2811 142.03 92.5252 141.626 91.6502C141.222 90.7752 141.047 89.7944 141.103 88.7078C141.171 87.3656 141.563 86.3815 142.278 85.7558C142.994 85.13 143.884 84.8442 144.949 84.8985C145.823 84.9429 146.6 85.2068 147.28 85.69C147.94 86.1508 148.508 86.7351 148.985 87.4429C149.463 88.1294 149.863 88.8654 150.186 89.6509C150.307 89.3793 150.5 89.1542 150.765 88.9754C151.011 88.7743 151.298 88.5753 151.629 88.3786L154.719 86.8377C155.136 86.6239 155.444 86.4474 155.643 86.308C155.822 86.1462 155.92 85.9162 155.935 85.6179C155.94 85.5114 155.926 85.3718 155.892 85.1992C155.837 85.0255 155.738 84.8603 155.597 84.7035C155.754 84.562 155.919 84.4636 156.093 84.4084C156.266 84.3531 156.438 84.3298 156.609 84.3385C157.141 84.3656 157.576 84.6334 157.914 85.1419C158.231 85.628 158.374 86.1693 158.344 86.7658C158.314 87.3411 158.117 87.8544 157.753 88.3058C157.388 88.7572 156.868 89.1045 156.194 89.3479L150.757 91.6665C150.957 92.3389 151.137 92.9995 151.297 93.6485C151.436 94.275 151.555 94.8579 151.656 95.397C152.572 95.4437 153.339 95.4827 153.957 95.5142C154.554 95.5445 155.044 95.5588 155.429 95.557C155.793 95.5329 156.116 95.4959 156.396 95.446C156.656 95.3738 156.948 95.2926 157.273 95.2023C157.414 95.3804 157.541 95.6111 157.655 95.8946C157.791 96.1579 157.847 96.5132 157.825 96.9606ZM150.442 95.3352C150.229 94.4699 149.974 93.6025 149.677 92.733C149.359 91.841 148.983 91.0422 148.549 90.3365C148.116 89.6096 147.612 89.0285 147.036 88.5933C146.44 88.1358 145.748 87.8869 144.959 87.8468C144.171 87.8067 143.607 87.9809 143.267 88.3694C142.906 88.7356 142.711 89.2169 142.68 89.8135C142.629 90.8148 142.935 91.7276 143.598 92.5517C144.241 93.3534 145.159 93.9982 146.352 94.4862C147.523 94.973 148.886 95.256 150.442 95.3352ZM156.315 70.3794C156.947 72.6174 156.753 74.6006 155.733 76.3292C154.708 78.0372 152.861 79.2679 150.192 80.0212C147.625 80.7455 145.423 80.6799 143.586 79.8241C141.728 78.9742 140.457 77.3379 139.773 74.9152C139.46 73.8065 139.357 72.7718 139.462 71.811C139.547 70.8559 139.859 70.0364 140.398 69.3525C140.91 68.6537 141.659 68.1653 142.644 67.8872C144.184 67.4526 145.531 67.7485 146.685 68.7749C147.813 69.7865 148.678 71.36 149.281 73.4953C149.519 74.337 149.722 75.1772 149.893 76.0159C150.036 76.8398 150.138 77.709 150.196 78.6234L149.132 78.8574C149.069 78.3209 148.979 77.7257 148.861 77.0719C148.743 76.418 148.598 75.7495 148.428 75.0661C148.236 74.3886 148.002 73.7563 147.726 73.1694C147.429 72.5882 147.077 72.0889 146.671 71.6715C146.245 71.2599 145.737 70.9931 145.149 70.871C144.554 70.7284 143.867 70.7673 143.087 70.9875C142.307 71.2077 141.752 71.5194 141.422 71.9228C141.093 72.3261 140.91 72.7768 140.873 73.2748C140.81 73.7581 140.845 74.2359 140.978 74.7081C141.349 76.0221 142.233 76.9143 143.629 77.3847C144.999 77.8404 146.793 77.7553 149.01 77.1295C150.673 76.6601 151.936 76.0708 152.8 75.3615C153.643 74.658 154.173 73.8656 154.39 72.9842C154.581 72.0881 154.54 71.1576 154.267 70.1926C153.954 69.084 153.456 68.1827 152.773 67.489C152.069 66.801 151.263 66.4189 150.354 66.3427C150.379 66.1142 150.492 65.9271 150.695 65.7812C150.897 65.6353 151.284 65.5926 151.856 65.6531C152.91 65.7766 153.823 66.2616 154.594 67.108C155.365 67.9544 155.938 69.0449 156.315 70.3794ZM154.385 48.4889C154.918 49.2615 155.339 50.0595 155.648 50.883C155.957 51.7066 156.059 52.492 155.952 53.2393C155.851 53.9569 155.45 54.5581 154.747 55.0427C154.238 55.3941 153.699 55.5329 153.13 55.4592C152.578 55.3734 152.114 55.0583 151.739 54.514C151.387 54.0048 151.282 53.5331 151.423 53.0988C151.751 53.2356 152.074 53.2718 152.392 53.2076C152.699 53.1257 152.948 53.0182 153.142 52.8849C153.598 52.5699 153.888 52.2013 154.011 51.7792C154.152 51.3449 154.166 50.895 154.052 50.4293C153.938 49.9636 153.742 49.5289 153.463 49.125C152.494 47.7204 151.232 47.0748 149.677 47.1885C148.128 47.2725 146.335 48.0173 144.298 49.4228C144 49.6287 143.652 49.8562 143.253 50.1052C142.825 50.3488 142.397 50.5924 141.969 50.8359C141.541 51.0795 141.148 51.2988 140.79 51.4939L140.134 51.5577C141.853 50.6307 143.471 50.2526 144.989 50.4236C146.477 50.5891 147.73 51.4093 148.748 52.8843C149.656 54.2012 149.943 55.4807 149.608 56.7228C149.243 57.9595 148.051 59.2746 146.032 60.668L141.002 64.1393C140.527 64.4665 140.045 64.8381 139.555 65.2543C139.064 65.6705 138.657 66.0942 138.332 66.5254C138.083 66.4643 137.833 66.3648 137.582 66.2268C137.302 66.0833 137.052 65.8536 136.834 65.5375C136.556 65.1337 136.446 64.7301 136.504 64.3268C136.551 63.9059 136.785 63.55 137.206 63.2592L144.08 58.5156C145.625 57.4494 146.652 56.495 147.159 55.6525C147.654 54.7925 147.605 53.9322 147.011 53.0719C146.684 52.5978 146.261 52.2288 145.742 51.9649C145.211 51.6835 144.584 51.5456 143.862 51.5512C143.111 51.5514 142.273 51.7276 141.35 52.0797C140.426 52.4318 139.412 52.9895 138.305 53.7528C137.304 54.4434 136.485 55.0217 135.848 55.4876C135.198 55.9359 134.677 56.3081 134.286 56.6044C133.876 56.9127 133.555 57.199 133.323 57.4631C133.061 57.7217 132.82 57.9919 132.599 58.2735C132.421 58.2409 132.192 58.1528 131.912 58.0094C131.631 57.8659 131.37 57.6186 131.127 57.2675C130.861 56.8812 130.76 56.4715 130.824 56.0385C130.888 55.6055 131.148 55.2315 131.605 54.9165L142.622 47.2749C144.466 46.0027 146.117 45.278 147.576 45.1007C149.04 44.8938 150.327 45.107 151.438 45.7401C152.567 46.3611 153.549 47.2774 154.385 48.4889ZM127.152 30.1302C127.608 30.4067 127.897 30.794 128.019 31.2922C128.141 31.7903 128.07 32.2583 127.804 32.6961C127.528 33.1522 127.141 33.4413 126.642 33.5634C126.144 33.6855 125.667 33.6084 125.211 33.3319C124.773 33.0665 124.493 32.6847 124.371 32.1865C124.249 31.6884 124.326 31.2113 124.603 30.7552C124.868 30.3174 125.25 30.0374 125.748 29.9153C126.246 29.7932 126.714 29.8648 127.152 30.1302Z" fill="#F1C953"/>
<g clip-path="url(#clip0_3043_666)">
<path d="M92.8 111.295C106.328 111.295 117.295 100.328 117.295 86.8001C117.295 73.2718 106.328 62.3051 92.8 62.3051C79.2718 62.3051 68.305 73.2718 68.305 86.8001C68.305 100.328 79.2718 111.295 92.8 111.295Z" fill="#E30A17"/>
<path d="M83.536 86.8001C83.536 80.5581 88.596 75.5001 94.835 75.5001C96.739 75.5001 98.534 75.9721 100.106 76.8041C97.554 74.2531 94.022 72.6741 90.13 72.6741C82.33 72.6741 76.006 78.9981 76.006 86.8001C76.006 94.6021 82.33 100.926 90.13 100.926C94.029 100.926 97.554 99.3471 100.106 96.7991C98.534 97.6311 96.739 98.1001 94.835 98.1001C88.596 98.1001 83.536 93.0401 83.536 86.8001Z" fill="white"/>
<path d="M100.429 86.8331L104.968 85.1351L105.178 80.2931L108.197 84.0861L112.865 82.7911L110.191 86.8331L112.865 90.8741L108.197 89.5791L105.178 93.3721L104.968 88.5281L100.429 86.8331Z" fill="white"/>
<mask id="mask0_3043_666" style="mask-type:luminance" maskUnits="userSpaceOnUse" x="68" y="62" width="50" height="50">
<path d="M92.8 111.3C106.331 111.3 117.3 100.331 117.3 86.8C117.3 73.2691 106.331 62.3 92.8 62.3C79.269 62.3 68.3 73.2691 68.3 86.8C68.3 100.331 79.269 111.3 92.8 111.3Z" fill="white"/>
</mask>
<g mask="url(#mask0_3043_666)">
<path opacity="0.4" d="M92.8 114.269C107.971 114.269 120.269 101.971 120.269 86.8001C120.269 71.6293 107.971 59.3311 92.8 59.3311C77.6293 59.3311 65.331 71.6293 65.331 86.8001C65.331 101.971 77.6293 114.269 92.8 114.269Z" fill="url(#paint0_radial_3043_666)"/>
</g>
<mask id="mask1_3043_666" style="mask-type:luminance" maskUnits="userSpaceOnUse" x="68" y="62" width="50" height="50">
<path d="M92.8 111.3C106.331 111.3 117.3 100.331 117.3 86.8C117.3 73.2691 106.331 62.3 92.8 62.3C79.269 62.3 68.3 73.2691 68.3 86.8C68.3 100.331 79.269 111.3 92.8 111.3Z" fill="white"/>
</mask>
<g mask="url(#mask1_3043_666)">
<path opacity="0.6" d="M92.8 118.478C110.295 118.478 124.478 104.295 124.478 86.8001C124.478 69.3048 110.295 55.1221 92.8 55.1221C75.3047 55.1221 61.122 69.3048 61.122 86.8001C61.122 104.295 75.3047 118.478 92.8 118.478Z" fill="url(#paint1_radial_3043_666)"/>
</g>
<path d="M93.106 93.802C102.664 93.802 110.412 87.5336 110.412 79.801C110.412 72.0685 102.664 65.8 93.106 65.8C83.5482 65.8 75.8 72.0685 75.8 79.801C75.8 87.5336 83.5482 93.802 93.106 93.802Z" fill="url(#paint2_linear_3043_666)"/>
</g>
</g>
<defs>
<filter id="filter0_d_3043_666" x="2.86102e-06" y="4.86374e-05" width="181.6" height="181.6" filterUnits="userSpaceOnUse" color-interpolation-filters="sRGB">
<feFlood flood-opacity="0" result="BackgroundImageFix"/>
<feColorMatrix in="SourceAlpha" type="matrix" values="0 0 0 0 0 0 0 0 0 0 0 0 0 0 0 0 0 0 127 0" result="hardAlpha"/>
<feOffset dx="-2" dy="4"/>
<feGaussianBlur stdDeviation="5.4"/>
<feComposite in2="hardAlpha" operator="out"/>
<feColorMatrix type="matrix" values="0 0 0 0 0 0 0 0 0 0 0 0 0 0 0 0 0 0 0.25 0"/>
<feBlend mode="normal" in2="BackgroundImageFix" result="effect1_dropShadow_3043_666"/>
<feBlend mode="normal" in="SourceGraphic" in2="effect1_dropShadow_3043_666" result="shape"/>
</filter>
<radialGradient id="paint0_radial_3043_666" cx="0" cy="0" r="1" gradientUnits="userSpaceOnUse" gradientTransform="translate(92.8 86.8001) scale(27.4688)">
<stop stop-opacity="0"/>
<stop offset="0.7576" stop-opacity="0"/>
<stop offset="1"/>
</radialGradient>
<radialGradient id="paint1_radial_3043_666" cx="0" cy="0" r="1" gradientUnits="userSpaceOnUse" gradientTransform="translate(92.8 86.8001) scale(31.6777)">
<stop stop-opacity="0"/>
<stop offset="0.5758" stop-opacity="0"/>
<stop offset="1"/>
</radialGradient>
<linearGradient id="paint2_linear_3043_666" x1="93.1056" y1="93.8021" x2="93.1056" y2="65.8002" gradientUnits="userSpaceOnUse">
<stop offset="0.0727" stop-color="white" stop-opacity="0.05"/>
<stop offset="0.897" stop-color="white" stop-opacity="0.75"/>
<stop offset="1" stop-color="white" stop-opacity="0.75"/>
</linearGradient>
<clipPath id="clip0_3043_666">
<rect width="50" height="50" fill="white" transform="translate(67.8 61.8)"/>
</clipPath>
</defs>
</svg>
